<?xml version="1.0" encoding="UTF-8"?>
<svg width="512pt" height="512pt" version="1.1" viewBox="0 0 512 512" xmlns="http://www.w3.org/2000/svg">
    <style>
        @media(prefers-color-scheme: dark)
        {
            .svg-logo-circle {
                fill: rgba(58, 80, 107, 1);
                stroke: rgba(58, 80, 107, 1);
            }

            .svg-logo-motif {
                fill:rgba(111, 255, 233, 1);
                stroke:rgba(111, 255, 233, 1);
            }
        }

        @media(prefers-color-scheme: light)
        {
            .svg-logo-circle {
                fill: rgba(28, 37, 65, 1);
                stroke: rgba(28, 37, 65, 1);
            }

            .svg-logo-motif {
                fill:rgba(89, 92, 255, 1);
                stroke:rgba(89, 92, 255, 1);
            }
        }
        
    </style>
 <g>
  <path class="svg-logo-circle" d="m256.02 440.89c-79.227 0-143.68-64.438-143.68-143.64s64.457-143.64 143.68-143.64c79.203 0 143.64 64.438 143.64 143.64s-64.438 143.64-143.64 143.64zm0-267.28c-68.199 0-123.68 55.465-123.68 123.64 0 68.176 55.484 123.64 123.68 123.64 68.176 0 123.64-55.465 123.64-123.64 0-68.176-55.465-123.64-123.64-123.64z"/>
  <path class="svg-logo-motif" d="m256.02 307.25c-2.3984 0-4.793-0.85547-6.6953-2.5703-38.48-34.688-60.547-84.285-60.547-136.07 0-51.758 22.07-101.34 60.547-136.03 3.8047-3.4336 9.5898-3.4297 13.395 0.003906 38.449 34.703 60.5 84.281 60.5 136.02 0 51.77-22.051 101.36-60.5 136.07-1.9023 1.7148-4.3008 2.5742-6.6992 2.5742zm-0.003907-253.43c-30.129 30.441-47.238 71.766-47.238 114.78 0 43.039 17.109 84.379 47.238 114.82 30.105-30.457 47.203-71.797 47.203-114.82 0-42.996-17.098-84.32-47.203-114.78z"/>
  <path class="svg-logo-motif" d="m86.836 444.33h-0.003907c-19.254 0-38.328-3.0195-56.688-8.9727-4.875-1.5781-7.7656-6.5898-6.6953-11.598 10.801-50.645 42.723-94.531 87.578-120.41 27.812-16.086 59.422-24.594 91.402-24.594 19.25 0 38.32 3.0195 56.676 8.9688 4.875 1.582 7.7656 6.5938 6.6953 11.605-10.832 50.617-42.75 94.516-87.57 120.44-27.852 16.07-59.457 24.559-91.395 24.559zm-41.641-25.391c13.598 3.5781 27.562 5.3906 41.637 5.3906 28.438 0 56.586-7.5625 81.395-21.875 37.242-21.539 64.492-57.027 75.82-98.309-13.59-3.5742-27.551-5.3867-41.617-5.3867-28.469 0-56.617 7.5781-81.398 21.91-37.285 21.508-64.535 56.977-75.836 98.27z"/>
  <path class="svg-logo-motif" d="m425.17 444.33c-31.941 0-63.547-8.4883-91.391-24.551-44.852-25.941-76.754-69.844-87.539-120.45-1.0664-5.0117 1.8242-10.016 6.6953-11.598 18.355-5.9492 37.422-8.9688 56.664-8.9688 31.961 0 63.574 8.5039 91.422 24.598 44.828 25.883 76.73 69.766 87.531 120.4 1.0664 5.0117-1.8203 10.02-6.6953 11.598-18.359 5.9531-37.434 8.9727-56.688 8.9727zm-157.18-140.18c11.285 41.27 38.523 76.754 75.797 98.312 24.801 14.305 52.945 21.867 81.387 21.867 14.074 0 28.039-1.8125 41.637-5.3906-11.297-41.285-38.531-76.754-75.785-98.266-24.812-14.336-52.965-21.914-81.418-21.914-14.07 0.003907-28.027 1.8125-41.617 5.3906z"/>
 </g>
</svg>
