<?xml version="1.0" encoding="UTF-8"?>
<svg width="512pt" height="512pt" version="1.1" viewBox="0 0 512 512" xmlns="http://www.w3.org/2000/svg">
    <style>
    @media(prefers-color-scheme : dark)
    {
        .home-values-icon-1 {
            fill:rgba(91, 192, 190, 1);
            stroke:rgba(91, 192, 190, 1);
        }

        .home-values-icon-2 {
            fill:rgba(111, 255, 233, 1);
            stroke:rgba(111, 255, 233, 1);
        }
    }

    @media(prefers-color-scheme: light)
    {
        .home-values-icon-1 {
            fill: rgba(28, 37, 65, 1);
            stroke: rgba(28, 37, 65, 1);
        }

        .home-values-icon-2 {
            fill:rgba(89, 92, 255, 1);
            stroke:rgba(89, 92, 255, 1);
        }
    }
</style>
 <g>
  <path class="home-values-icon-2" d="m256 88.32c-92.461 0-167.68 75.219-167.68 167.68s75.219 167.68 167.68 167.68 167.68-75.219 167.68-167.68-75.219-167.68-167.68-167.68zm0 327.68c-88.227 0-160-71.773-160-160s71.773-160 160-160 160 71.773 160 160-71.773 160-160 160z"/>
  <path class="home-values-icon-1" d="m256 119.78c-75.113 0-136.22 61.109-136.22 136.22s61.109 136.22 136.22 136.22 136.22-61.109 136.22-136.22-61.109-136.22-136.22-136.22zm0 264.77c-70.879 0-128.54-57.664-128.54-128.54s57.664-128.54 128.54-128.54 128.54 57.664 128.54 128.54-57.664 128.54-128.54 128.54z"/>
  <path class="home-values-icon-2" d="m311.7 252.16h-51.863v-52.957c0-2.1211-1.7188-3.8398-3.8398-3.8398s-3.8398 1.7188-3.8398 3.8398v56.797c0 2.1211 1.7188 3.8398 3.8398 3.8398h55.703c2.1211 0 3.8398-1.7188 3.8398-3.8398 0.003906-2.1211-1.7188-3.8398-3.8398-3.8398z"/>
 </g>
</svg>
