<?xml version="1.0" encoding="UTF-8"?>
<svg width="512pt" height="512pt" version="1.1" viewBox="0 0 512 512" xmlns="http://www.w3.org/2000/svg">
    <style>
    @media(prefers-color-scheme : dark)
    {
        .home-values-icon-1 {
            fill:rgba(91, 192, 190, 1);
            stroke:rgba(91, 192, 190, 1);
        }

        .home-values-icon-2 {
            fill:rgba(111, 255, 233, 1);
            stroke:rgba(111, 255, 233, 1);
        }
    }

    @media(prefers-color-scheme: light)
    {
        .home-values-icon-1 {
            fill: rgba(28, 37, 65, 1);
            stroke: rgba(28, 37, 65, 1);
        }

        .home-values-icon-2 {
            fill:rgba(89, 92, 255, 1);
            stroke:rgba(89, 92, 255, 1);
        }
    }
</style>
 <g>
  <path class="home-values-icon-2" d="m256 148.1c-26.941 0-48.855 21.918-48.855 48.859 0 26.938 21.914 48.855 48.855 48.855s48.855-21.918 48.855-48.855c0-26.945-21.914-48.859-48.855-48.859zm0 87.473c-21.289 0-38.613-17.324-38.613-38.613 0-21.297 17.324-38.617 38.613-38.617s38.613 17.324 38.613 38.617c0 21.289-17.324 38.613-38.613 38.613z"/>
  <path class="home-values-icon-2" d="m314.05 356.87c0.050781-0.625-0.054688-1.2227-0.21484-1.7891 37.34-49.215 80.234-115.1 80.234-158.12 0-76.133-61.938-138.08-138.07-138.08s-138.07 61.945-138.07 138.08c0 43.027 42.898 108.91 80.234 158.12-0.16016 0.57031-0.26562 1.1641-0.21484 1.7891 0.21484 2.6836 2.4531 4.7148 5.1016 4.7148 0.027344 0 0.058594-0.003907 0.085937-0.003907 25.27 32.766 46.898 56.828 49.074 59.234 0.96875 1.0742 2.3477 1.6875 3.793 1.6875s2.8242-0.61328 3.7969-1.6836c2.1758-2.4062 23.805-26.469 49.074-59.234 0.027344 0 0.058594 0.003906 0.085937 0.003906 2.6445-0.003906 4.8828-2.0391 5.0977-4.7188zm-58.055 52.793c-21.602-24.617-127.84-148.94-127.84-212.71 0-70.488 57.348-127.84 127.84-127.84s127.84 57.348 127.84 127.84c0 63.766-106.23 188.09-127.84 212.71z"/>
  <path class="home-values-icon-1" d="m176.66 354.04c-1.7266 0.21875-3.4297 0.44141-5.1211 0.67578-2.8008 0.38672-4.7617 2.9688-4.3711 5.7695 0.35156 2.5664 2.5469 4.4219 5.0664 4.4219 0.23047 0 0.46484-0.015625 0.70312-0.046875 1.6484-0.22656 3.3164-0.44922 5-0.66016 2.8047-0.35547 4.7969-2.9141 4.4414-5.7188-0.35156-2.8086-2.9102-4.8125-5.7188-4.4414z"/>
  <path class="home-values-icon-1" d="m198.03 440.37-5.0352-0.47266c-2.8438-0.27734-5.3203 1.7812-5.5938 4.5938-0.27344 2.8125 1.7812 5.3203 4.5938 5.5938l5.125 0.48828c0.15625 0.011719 0.30859 0.019531 0.46094 0.019531 2.6211 0 4.8555-2.0039 5.0938-4.6641 0.25-2.8164-1.8242-5.3047-4.6445-5.5586z"/>
  <path class="home-values-icon-1" d="m86.629 379.29c-1.6484 1.0586-3.1758 2.1406-4.5664 3.2344-2.2188 1.75-2.6016 4.9688-0.85156 7.1914 1.0117 1.2812 2.5117 1.9492 4.0234 1.9492 1.1094 0 2.2266-0.35937 3.1641-1.1016 1.1484-0.89844 2.4023-1.7812 3.7617-2.6523 2.3789-1.5234 3.0703-4.6914 1.5469-7.0742-1.5312-2.3789-4.7031-3.0703-7.0781-1.5469z"/>
  <path class="home-values-icon-1" d="m109.52 422.88c-1.5742-0.59766-3.1016-1.2031-4.5664-1.8242-2.6016-1.1016-5.6094 0.12109-6.7109 2.7305-1.0938 2.6055 0.125 5.6094 2.7305 6.7031 1.5859 0.66797 3.2188 1.3203 4.9141 1.9609 0.59375 0.22656 1.2109 0.33594 1.8164 0.33594 2.0664 0 4.0117-1.2617 4.7852-3.3086 1.0078-2.6367-0.32031-5.5938-2.9688-6.5977z"/>
  <path class="home-values-icon-1" d="m228.34 442.33-5.0547-0.22656c-2.7695-0.097656-5.2266 2.0391-5.3633 4.8633-0.13672 2.8242 2.0391 5.2266 4.8633 5.3633l5.1367 0.22656c0.070313 0.003906 0.14453 0.003906 0.21484 0.003906 2.7305 0 5-2.1562 5.1094-4.9102 0.11328-2.8203-2.082-5.207-4.9062-5.3203z"/>
  <path class="home-values-icon-1" d="m82.762 405.79c-1.4492-2.4258-4.5898-3.2266-7.0195-1.7812-2.4297 1.4492-3.2266 4.5898-1.7812 7.0195 1 1.6719 2.2656 3.3281 3.7656 4.9141 1.0039 1.0664 2.3594 1.6016 3.7188 1.6016 1.2656 0 2.5234-0.46094 3.5156-1.3984 2.0547-1.9414 2.1484-5.1836 0.20312-7.2383-0.98437-1.0391-1.793-2.0898-2.4023-3.1172z"/>
  <path class="home-values-icon-1" d="m138.22 431.3c-1.6602-0.37891-3.2852-0.76953-4.8867-1.1641-2.7148-0.67969-5.5195 0.98828-6.1992 3.7383-0.67969 2.7461 0.99609 5.5195 3.7383 6.1992 1.6484 0.41016 3.3359 0.80859 5.0508 1.2031 0.38672 0.085937 0.76953 0.12891 1.1484 0.12891 2.3281 0 4.4414-1.6016 4.9844-3.9727 0.64062-2.75-1.0781-5.4961-3.8359-6.1328z"/>
  <path class="home-values-icon-1" d="m146.07 358.95c-1.7188 0.34375-3.4062 0.69141-5.0703 1.0469-2.7656 0.58984-4.5234 3.3086-3.9336 6.0742 0.51172 2.4062 2.6367 4.0508 5 4.0508 0.35547 0 0.71484-0.035156 1.0742-0.11328 1.6133-0.34375 3.2617-0.68359 4.9297-1.0156 2.7734-0.55078 4.5742-3.25 4.0195-6.0234-0.55469-2.7656-3.2188-4.5625-6.0195-4.0195z"/>
  <path class="home-values-icon-1" d="m167.91 436.83-5-0.76562c-2.8008-0.44531-5.4102 1.4688-5.8555 4.2617-0.44141 2.793 1.4688 5.4141 4.2656 5.8555l5.0898 0.78125c0.25391 0.039062 0.50391 0.054687 0.75391 0.054687 2.4961 0 4.6797-1.8242 5.0586-4.3672 0.41797-2.7969-1.5117-5.4023-4.3125-5.8203z"/>
  <path class="home-values-icon-1" d="m115.84 366.52c-1.7031 0.53906-3.3633 1.0859-4.9766 1.6367-2.6758 0.92188-4.0938 3.8359-3.1758 6.5078 0.73047 2.1211 2.7148 3.457 4.8398 3.457 0.55078 0 1.1133-0.089844 1.6641-0.28125 1.5312-0.52734 3.1016-1.0469 4.7148-1.5508 2.6992-0.85156 4.1992-3.7266 3.3516-6.4219-0.84766-2.6953-3.7109-4.1797-6.418-3.3477z"/>
  <path class="home-values-icon-1" d="m344.48 360.43c0.37891-2.8008-1.5859-5.3828-4.3867-5.7617l-5.1094-0.67187c-2.7344-0.35156-5.3594 1.6328-5.7188 4.4375-0.35547 2.8047 1.6289 5.3672 4.4414 5.7227l5.0117 0.65625c0.23438 0.03125 0.46484 0.046875 0.69531 0.046875 2.5195 0.003906 4.7148-1.8594 5.0664-4.4297z"/>
  <path class="home-values-icon-1" d="m258.74 442.88h-0.015625l-2.7227 0.003906-2.3438-0.003906h-0.015625c-2.8203 0-5.1094 2.2812-5.1211 5.1016-0.011719 2.8281 2.2734 5.1289 5.1055 5.1367l2.375 0.007813 2.7539-0.003906c2.8242-0.007813 5.1133-2.3086 5.1055-5.1367-0.007813-2.8242-2.3008-5.1055-5.1211-5.1055z"/>
  <path class="home-values-icon-1" d="m407.37 420.91c-1.4648 0.62109-2.9883 1.2344-4.5703 1.8398-2.6406 1.0117-3.9609 3.9766-2.9453 6.6133 0.78125 2.0352 2.7188 3.2891 4.7812 3.2891 0.60938 0 1.2305-0.10938 1.8359-0.34375 1.6914-0.64844 3.3242-1.3086 4.8984-1.9766 2.6055-1.1055 3.8203-4.1094 2.7148-6.7109-1.1094-2.6055-4.1172-3.8125-6.7148-2.7109z"/>
  <path class="home-values-icon-1" d="m379.02 430.05c-1.5938 0.39844-3.2266 0.78906-4.8789 1.1719-2.75 0.64062-4.4648 3.3906-3.8242 6.1445 0.54688 2.3633 2.6484 3.9609 4.9805 3.9609 0.38672 0 0.77344-0.042969 1.1641-0.13281 1.7031-0.39844 3.3867-0.80078 5.0391-1.2109 2.7383-0.68359 4.4102-3.4609 3.7305-6.2031-0.6875-2.7461-3.4805-4.4297-6.2109-3.7305z"/>
  <path class="home-values-icon-1" d="m430.51 389.46c1.7383-2.2344 1.3359-5.4492-0.89453-7.1836-1.3945-1.082-2.9258-2.1523-4.5898-3.2031-2.3906-1.5156-5.5508-0.79688-7.0664 1.5938-1.5117 2.3906-0.79688 5.5508 1.5938 7.0625 1.3633 0.86328 2.625 1.7383 3.7695 2.6328 0.93359 0.72656 2.0469 1.0781 3.1406 1.0781 1.5234-0.003906 3.0391-0.68359 4.0469-1.9805z"/>
  <path class="home-values-icon-1" d="m436.35 403.63c-2.4688-1.3984-5.5898-0.53125-6.9805 1.9336-0.57812 1.0234-1.3633 2.0742-2.3281 3.1211-1.9141 2.0781-1.7852 5.3203 0.29688 7.2344 0.98438 0.90625 2.2305 1.3555 3.4688 1.3555 1.3789 0 2.7539-0.55469 3.7656-1.6484 1.4961-1.625 2.7461-3.3125 3.7109-5.0156 1.3906-2.4648 0.52344-5.5898-1.9336-6.9805z"/>
  <path class="home-values-icon-1" d="m403.96 374.52c0.90625-2.6758-0.53125-5.5859-3.2109-6.4922-1.6133-0.54688-3.2656-1.0898-4.9648-1.6211-2.7188-0.85156-5.5742 0.65625-6.4141 3.3555-0.84375 2.6992 0.65625 5.5703 3.3555 6.4141 1.6211 0.51172 3.1992 1.0273 4.7461 1.5508 0.53906 0.18359 1.0938 0.27344 1.6406 0.27344 2.1328 0 4.1211-1.3477 4.8477-3.4805z"/>
  <path class="home-values-icon-1" d="m319.37 439.86c-1.6602 0.16406-3.3398 0.32422-5.0234 0.47656-2.8203 0.25391-4.8945 2.7383-4.6445 5.5547 0.23828 2.6641 2.4688 4.6641 5.0938 4.6641 0.14844 0 0.30469-0.007813 0.46094-0.019532 1.7266-0.15625 3.4336-0.31641 5.1367-0.48437 2.8086-0.28125 4.8633-2.7891 4.5859-5.6016-0.28516-2.8164-2.7266-4.8438-5.6094-4.5898z"/>
  <path class="home-values-icon-1" d="m289.09 442.08-5.0586 0.23047c-2.8242 0.11328-5.0195 2.5-4.9062 5.3242 0.10938 2.7539 2.3789 4.9102 5.1094 4.9102 0.070313 0 0.14453-0.003906 0.21484-0.003906l5.1406-0.23047c2.8242-0.14062 5-2.5391 4.8633-5.3633-0.13672-2.8281-2.5977-4.9609-5.3633-4.8672z"/>
  <path class="home-values-icon-1" d="m349.43 436c-1.6484 0.26562-3.3086 0.52344-4.9961 0.77344-2.7969 0.41797-4.7266 3.0234-4.3047 5.8242 0.38672 2.5391 2.5664 4.3594 5.0586 4.3594 0.25 0 0.50391-0.015626 0.76562-0.058594 1.7148-0.25781 3.4141-0.51953 5.0938-0.78906 2.7969-0.44922 4.6953-3.0742 4.2461-5.8672-0.44531-2.793-3.0859-4.6992-5.8633-4.2422z"/>
  <path class="home-values-icon-1" d="m374.57 365.99c0.58594-2.7656-1.1836-5.4844-3.9492-6.0664-1.6641-0.35156-3.3555-0.69922-5.0664-1.0391-2.7695-0.55078-5.4688 1.2539-6.0156 4.0273-0.55078 2.7734 1.25 5.4688 4.0234 6.0156 1.6719 0.32812 3.3086 0.67188 4.9336 1.0117 0.35938 0.074219 0.71484 0.10938 1.0664 0.10938 2.375 0.003906 4.5-1.6484 5.0078-4.0586z"/>
 </g>
</svg>
