<?xml version="1.0" encoding="UTF-8"?>
<svg width="512pt" height="512pt" version="1.1" viewBox="0 0 512 512" xmlns="http://www.w3.org/2000/svg">
<style>
    @media(prefers-color-scheme : dark)
    {
        .home-values-icon-1 {
            fill:rgba(91, 192, 190, 1);
            stroke:rgba(91, 192, 190, 1);
        }

        .home-values-icon-2 {
            fill:rgba(111, 255, 233, 1);
            stroke:rgba(111, 255, 233, 1);
        }
    }

    @media(prefers-color-scheme: light)
    {
        .home-values-icon-1 {
            fill: rgba(28, 37, 65, 1);
            stroke: rgba(28, 37, 65, 1);
        }

        .home-values-icon-2 {
            fill:rgba(89, 92, 255, 1);
            stroke:rgba(89, 92, 255, 1);
        }
    }
</style>
 <g>
  <path class="home-values-icon-2" d="m256 168.66c24.637 0 44.676-20.043 44.676-44.676 0-24.637-20.039-44.68-44.676-44.68s-44.676 20.043-44.676 44.676c0 24.637 20.039 44.68 44.676 44.68zm0-79.113c18.988 0 34.438 15.449 34.438 34.438s-15.449 34.438-34.438 34.438-34.438-15.449-34.438-34.438c0-18.992 15.449-34.438 34.438-34.438z"/>
  <path class="home-values-icon-2" d="m103.56 343.34c-24.637 0-44.676 20.043-44.676 44.676 0 24.637 20.043 44.676 44.676 44.676 24.637 0 44.676-20.043 44.676-44.676 0-24.633-20.043-44.676-44.676-44.676zm0 79.113c-18.988 0-34.438-15.449-34.438-34.438s15.449-34.438 34.438-34.438c18.988 0 34.434 15.449 34.434 34.438 0 18.992-15.445 34.438-34.434 34.438z"/>
  <path class="home-values-icon-1" d="m292.05 176.17c-1.4141-2.4492-4.543-3.2969-6.9961-1.875-2.4492 1.4141-3.2891 4.5469-1.875 6.9961l65.691 113.79c0.94922 1.6406 2.6719 2.5586 4.4414 2.5586 0.86719 0 1.7461-0.21875 2.5547-0.68359 2.4492-1.4141 3.2891-4.5469 1.875-6.9961z"/>
  <path class="home-values-icon-1" d="m372.4 335.83c0.94922 1.6406 2.6719 2.5586 4.4414 2.5586 0.86719 0 1.75-0.21875 2.5547-0.68359 2.4492-1.4141 3.2891-4.5469 1.875-6.9961l-7.957-13.781c-1.4219-2.4531-4.5508-3.2969-6.9961-1.875-2.4492 1.4141-3.2891 4.5469-1.875 6.9961z"/>
  <path class="home-values-icon-1" d="m345.15 382.9h-178.3c-2.8281 0-5.1211 2.293-5.1211 5.1211s2.293 5.1211 5.1211 5.1211h178.3c2.8281 0 5.1211-2.293 5.1211-5.1211s-2.293-5.1211-5.1211-5.1211z"/>
  <path class="home-values-icon-1" d="m132.61 337.7c0.80859 0.46484 1.6875 0.68359 2.5547 0.68359 1.7695 0 3.4883-0.91797 4.4414-2.5586l89.227-154.54c1.4141-2.4492 0.57422-5.5781-1.875-6.9961-2.4609-1.4219-5.5781-0.57422-6.9961 1.875l-89.227 154.54c-1.4141 2.4531-0.57422 5.582 1.875 6.9961z"/>
  <path class="home-values-icon-2" d="m408.44 343.34c-24.637 0-44.676 20.043-44.676 44.676 0 24.637 20.039 44.676 44.676 44.676 24.637 0.003907 44.68-20.039 44.68-44.676 0-24.633-20.043-44.676-44.68-44.676zm0 79.113c-18.988 0-34.434-15.449-34.434-34.438s15.449-34.438 34.434-34.438c18.988 0 34.438 15.449 34.438 34.438 0 18.992-15.445 34.438-34.438 34.438z"/>
 </g>
</svg>
